<?xml version="1.0" encoding="iso-8859-1"?>
<!-- Uploaded to: SVG Repo, www.svgrepo.com, Generator: SVG Repo Mixer Tools -->
<svg fill="#000000" height="800px" width="800px" version="1.1" id="Capa_1" xmlns="http://www.w3.org/2000/svg" xmlns:xlink="http://www.w3.org/1999/xlink" 
	 viewBox="0 0 486.3 486.3" xml:space="preserve">
<g>
	<g>
		<path d="M173.8,327.671L173.8,327.671L173.8,327.671c-3.3,0-5.9,2.7-5.9,5.9c0,3.3,2.7,5.9,5.9,5.9l0,0l0,0c3.3,0,5.9-2.7,5.9-5.9
			C179.7,330.271,177,327.671,173.8,327.671z"/>
		<circle cx="156.4" cy="333.571" r="5.9"/>
		<circle cx="139.1" cy="333.571" r="5.9"/>
		<path d="M243.1,258.271c-1.6,0-3.1,0.6-4.2,1.7c-1.1,1.1-1.7,2.6-1.7,4.2s0.6,3.1,1.7,4.2c1.1,1.1,2.6,1.7,4.2,1.7
			c1.6,0,3.1-0.6,4.2-1.7s1.7-2.6,1.7-4.2s-0.6-3.1-1.7-4.2C246.2,258.971,244.7,258.271,243.1,258.271z"/>
		<path d="M243.1,327.671c-3.3,0-5.9,2.7-5.9,5.9c0,3.3,2.7,5.9,5.9,5.9c3.2,0,5.9-2.7,5.9-5.9
			C249,330.271,246.4,327.671,243.1,327.671z"/>
		<circle cx="243.1" cy="316.271" r="5.9"/>
		<circle cx="243.1" cy="298.871" r="5.9"/>
		<circle cx="243.1" cy="281.571" r="5.9"/>
		<path d="M295.1,327.671c-3.3,0-5.9,2.7-5.9,5.9c0,3.3,2.7,5.9,5.9,5.9c3.3,0,5.9-2.7,5.9-5.9
			C301.1,330.271,298.4,327.671,295.1,327.671z"/>
		<circle cx="277.8" cy="333.571" r="5.9"/>
		<circle cx="260.5" cy="333.571" r="5.9"/>
		<path d="M312.5,327.671c-1.6,0-3.1,0.6-4.2,1.7s-1.7,2.6-1.7,4.2s0.6,3.1,1.7,4.2s2.6,1.7,4.2,1.7s3.1-0.6,4.2-1.7
			s1.7-2.6,1.7-4.2s-0.6-3.1-1.7-4.2S314,327.671,312.5,327.671z"/>
		<path d="M225.8,327.671c-3.3,0-5.9,2.7-5.9,5.9c0,3.3,2.7,5.9,5.9,5.9c3.3,0,5.9-2.7,5.9-5.9
			C231.7,330.271,229,327.671,225.8,327.671z"/>
		<circle cx="208.4" cy="333.571" r="5.9"/>
		<circle cx="191.1" cy="333.571" r="5.9"/>
		<circle cx="347.1" cy="333.571" r="5.9"/>
		<circle cx="329.8" cy="333.571" r="5.9"/>
		<path d="M243.2,233.271h72.5c-0.4-30.2,0.8-46.2-18.7-53.4c-17.7-6.8-28.4-13.7-28.4-13.7l-13.7,43.3l-1.9,5.9l-6.1-17.4
			c14.1-19.6-1.1-20.6-3.7-20.6l0,0l0,0l0,0l0,0l0,0l0,0c-2.6,0-17.8,1-3.7,20.6l-6.1,17.4l-1.9-5.9l-13.7-43.3
			c0,0-10.6,6.9-28.4,13.7c-19.6,7.1-18.3,23.2-18.7,53.4L243.2,233.271L243.2,233.271L243.2,233.271z"/>
		<path d="M212.6,138.771c1.6,10.2,9.4,23.1,22.3,27.6c5.3,1.9,11.1,1.9,16.4,0c12.7-4.6,20.8-17.5,22.3-27.6
			c1.7-0.1,4-2.5,6.4-11.1c3.3-11.7-0.2-13.4-3.2-13.1c0.6-1.6,1-3.2,1.3-4.8c5-30.3-9.9-31.3-9.9-31.3s-2.5-4.8-9-8.3
			c-4.4-2.6-10.4-4.6-18.4-3.9c-2.6,0.1-5,0.6-7.3,1.4l0,0c-2.9,1-5.6,2.4-8.1,4.1c-3,1.9-5.8,4.2-8.3,6.9c-3.9,4-7.5,9.2-9,15.8
			c-1.3,4.9-1,9.9,0.1,15.4l0,0c0.3,1.6,0.7,3.2,1.3,4.8c-3-0.3-6.5,1.4-3.2,13.1C208.7,136.171,210.9,138.571,212.6,138.771z"/>
		<path d="M126.4,366.771c-17.7-6.8-28.4-13.7-28.4-13.7l-13.7,43.3l-1.9,5.9l-6.1-17.4c14.1-19.6-1.1-20.6-3.7-20.6l0,0l0,0l0,0
			l0,0l0,0l0,0c-2.6,0-17.8,1-3.7,20.6l-6.1,17.4l-1.9-5.9l-13.8-43.3c0,0-10.6,6.9-28.4,13.7c-19.6,7.1-18.3,23.2-18.7,53.4h72.5
			h0.2h72.4C144.7,389.971,145.9,373.871,126.4,366.771z"/>
		<path d="M42.1,325.571c1.6,10.2,9.4,23.1,22.3,27.6c5.3,1.9,11.1,1.9,16.4,0c12.7-4.6,20.8-17.5,22.3-27.6c1.7-0.1,4-2.5,6.4-11.1
			c3.3-11.7-0.2-13.4-3.2-13.1c0.6-1.6,1-3.2,1.3-4.8c5-30.3-9.9-31.3-9.9-31.3s-2.5-4.8-9-8.3c-4.4-2.6-10.4-4.6-18.4-3.9
			c-2.6,0.1-5,0.6-7.3,1.4l0,0c-2.9,1-5.6,2.4-8.1,4.1c-3,1.9-5.8,4.2-8.3,6.9c-3.9,4-7.5,9.2-9,15.8c-1.3,4.9-1,9.9,0.1,15.4l0,0
			c0.3,1.6,0.7,3.2,1.3,4.8c-3-0.3-6.5,1.4-3.2,13.1C38.1,323.071,40.3,325.471,42.1,325.571z"/>
		<path d="M467.5,366.771c-17.8-6.8-28.4-13.7-28.4-13.7l-13.7,43.3l-1.9,5.9l-6.1-17.4c14.1-19.6-1.1-20.6-3.7-20.6l0,0l0,0l0,0
			l0,0l0,0l0,0c-2.6,0-17.8,1-3.7,20.6l-6.1,17.4l-1.9-5.9l-13.8-43.3c0,0-10.6,6.9-28.4,13.7c-19.6,7.1-18.3,23.2-18.7,53.4h72.5
			h0.2h72.5C485.8,389.971,487,373.871,467.5,366.771z"/>
		<path d="M383.2,325.571c1.6,10.2,9.4,23.1,22.3,27.6c5.3,1.9,11.1,1.9,16.4,0c12.7-4.6,20.8-17.5,22.3-27.6
			c1.7-0.1,4-2.5,6.4-11.1c3.3-11.7-0.2-13.4-3.2-13.1c0.6-1.6,1-3.2,1.3-4.8c5-30.3-9.9-31.3-9.9-31.3s-2.5-4.8-9-8.3
			c-4.4-2.6-10.4-4.6-18.4-3.9c-2.6,0.1-5,0.6-7.3,1.4l0,0c-2.9,1-5.6,2.4-8.1,4.1c-3,1.9-5.8,4.2-8.3,6.9c-3.9,4-7.5,9.2-9,15.8
			c-1.3,4.9-1,9.9,0.1,15.4l0,0c0.3,1.6,0.7,3.2,1.3,4.8c-3-0.3-6.5,1.4-3.2,13.1C379.2,323.071,381.5,325.471,383.2,325.571z"/>
	</g>
</g>
</svg>